<?xml version="1.0" encoding="utf-8"?>
<!-- Generator: Adobe Illustrator 23.0.2, SVG Export Plug-In . SVG Version: 6.00 Build 0)  -->
<svg version="1.1" id="Layer_1" xmlns="http://www.w3.org/2000/svg" xmlns:xlink="http://www.w3.org/1999/xlink" x="0px" y="0px"
	 viewBox="0 0 96 21" style="enable-background:new 0 0 96 21;" xml:space="preserve">
<style type="text/css">
	.st0{fill:#F9BEC8;}
</style>
<g>
	<path class="st0" d="M7.8,17.4c-0.7,0-1.4-0.1-2-0.2s-1.2-0.3-1.7-0.5l0.2-1.8c0.6,0.3,1.3,0.5,1.9,0.6s1.2,0.2,1.8,0.2
		c0.8,0,1.4-0.1,1.8-0.4s0.6-0.7,0.6-1.3c0-0.7-0.4-1.3-1.1-1.6l-2.2-1c-0.8-0.4-1.5-0.9-2-1.4S4.4,8.8,4.4,8c0-1.1,0.3-1.9,1-2.5
		s1.6-1,2.8-1c0.8,0,1.6,0.1,2.2,0.4s1.3,0.6,1.9,1.2l-1.2,1.2c-0.5-0.4-1-0.7-1.4-0.9c-0.5-0.2-1-0.3-1.5-0.3
		c-0.6,0-1.1,0.1-1.4,0.4S6.3,7.3,6.3,7.9c0,0.4,0.1,0.7,0.3,1s0.5,0.5,1,0.7l1.8,0.9c0.9,0.4,1.6,0.9,2.1,1.5s0.7,1.2,0.7,2.1
		c0,1.1-0.4,2-1.1,2.5C10.4,17.1,9.3,17.4,7.8,17.4z"/>
	<path class="st0" d="M15,17.2V4h1.9v13.2H15z M20.7,17.2v-6.1c0-0.6-0.1-1-0.4-1.4s-0.7-0.5-1.2-0.5c-1.5,0-2.2,0.9-2.2,2.7
		l-0.5-2.4H17c0.1-0.6,0.3-1.1,0.7-1.4s1-0.5,1.8-0.5c1,0,1.7,0.3,2.3,0.9s0.8,1.4,0.8,2.5v6.1h-1.9V17.2z"/>
	<path class="st0" d="M29.3,17.4c-1.3,0-2.3-0.4-3-1.3s-1.1-2-1.1-3.6c0-1.5,0.4-2.7,1.1-3.6s1.7-1.3,3-1.3s2.3,0.4,3,1.3
		c0.7,0.8,1.1,2,1.1,3.6c0,1.5-0.4,2.7-1.1,3.6C31.6,16.9,30.6,17.4,29.3,17.4z M29.3,15.7c0.7,0,1.2-0.3,1.6-0.8s0.6-1.3,0.6-2.3
		s-0.2-1.8-0.6-2.3S30,9.4,29.3,9.4s-1.2,0.3-1.6,0.8s-0.6,1.3-0.6,2.3s0.2,1.8,0.6,2.3C28.1,15.4,28.7,15.7,29.3,15.7z"/>
	<path class="st0" d="M35.3,17.2v-1.6h6.2v1.6H35.3z M35.7,9.5V7.9h3.1L39,9.5H35.7z M37.4,17.2V7.9h1.5l0.4,2.7v6.6H37.4z
		 M39.3,13.2l-0.5-2.9h0.7c0.1-1.7,1-2.6,2.6-2.6c1,0,1.7,0.3,2.1,0.8s0.7,1.4,0.7,2.7h-1.8c0-0.7-0.1-1.2-0.3-1.5s-0.5-0.4-1-0.4
		c-0.8,0-1.4,0.3-1.8,1S39.3,11.9,39.3,13.2z"/>
	<path class="st0" d="M46.6,17.2V7.9h1.7l0.2,2v7.3H46.6z M52.4,17.2v-6.1c0-0.6-0.1-1-0.4-1.3s-0.7-0.5-1.2-0.5
		c-1.5,0-2.2,0.9-2.2,2.6L48,9.6h0.7C48.8,9,49,8.5,49.4,8.2s1-0.5,1.8-0.5c1,0,1.7,0.3,2.3,0.9s0.8,1.4,0.8,2.5v6.1H52.4z"/>
	<path class="st0" d="M59.6,17.4c-1,0-1.7-0.2-2.3-0.7s-0.8-1.1-0.8-2c0-1,0.4-1.7,1.1-2.3c0.7-0.5,1.8-0.8,3.1-0.8
		c0.6,0,1.1,0,1.5,0.1s0.8,0.2,1.2,0.3L63,13.3c-0.4-0.1-0.8-0.1-1.2-0.2s-0.8,0-1.2,0c-1.6,0-2.4,0.5-2.4,1.5
		c0,0.4,0.1,0.7,0.4,0.9c0.3,0.2,0.7,0.3,1.2,0.3c0.6,0,1.1-0.1,1.5-0.3s0.7-0.5,0.9-0.8s0.3-0.6,0.3-1v-1l0.5,2.4h-0.7l0.3-0.3
		c0,0.5-0.1,1-0.4,1.3c-0.3,0.4-0.6,0.6-1.1,0.8S60.2,17.4,59.6,17.4z M62.9,17.3l-0.1-2.8l-0.2-0.8v-2.4c0-0.6-0.2-1.1-0.7-1.4
		c-0.4-0.3-1.1-0.4-1.9-0.5l-2.2-0.1L58,7.6h1.9c1.5,0,2.7,0.4,3.4,1c0.7,0.6,1.1,1.6,1.1,2.8v3.9l1.6,0.2V17L62.9,17.3z"/>
	<path class="st0" d="M67.1,5.6V4H70v1.6H67.1z M72.9,17.4c-1.1,0-1.9-0.3-2.3-0.9s-0.7-1.5-0.7-2.8V4h1.9v9.6c0,0.5,0,0.9,0.1,1.2
		s0.3,0.5,0.5,0.7c0.3,0.1,0.7,0.2,1.2,0.2s1.1-0.1,1.9-0.3l0.2,1.6c-0.5,0.1-0.9,0.2-1.4,0.3S73.4,17.4,72.9,17.4z"/>
	<path class="st0" d="M78.2,17.2v-1.6h3.7v1.6H78.2z M78.7,9.5V7.9h4.9v1.6H78.7z M82.6,6.4c-0.4,0-0.7-0.1-0.9-0.4
		c-0.3-0.3-0.4-0.6-0.4-0.9c0-0.4,0.1-0.7,0.4-0.9c0.3-0.3,0.6-0.4,0.9-0.4c0.4,0,0.7,0.1,0.9,0.4s0.4,0.6,0.4,0.9
		c0,0.4-0.1,0.7-0.4,0.9S83,6.4,82.6,6.4z M81.8,17.2V8.4h1.9v8.8H81.8z M83.5,17.2v-1.6h3v1.6H83.5z"/>
	<path class="st0" d="M92.6,17.4c-0.4,0-0.7-0.1-0.9-0.4c-0.3-0.3-0.4-0.6-0.4-0.9c0-0.4,0.1-0.7,0.4-0.9c0.3-0.3,0.6-0.4,0.9-0.4
		c0.4,0,0.7,0.1,0.9,0.4s0.4,0.6,0.4,0.9c0,0.4-0.1,0.7-0.4,0.9S93,17.4,92.6,17.4z"/>
</g>
</svg>
